<?xml version="1.0" encoding="UTF-8" standalone="no"?>
<svg width="546px" height="235px" viewBox="0 0 546 235" version="1.1" xmlns="http://www.w3.org/2000/svg" xmlns:xlink="http://www.w3.org/1999/xlink" xmlns:sketch="http://www.bohemiancoding.com/sketch/ns">
    <!-- Generator: Sketch 3.0.4 (8054) - http://www.bohemiancoding.com/sketch -->
    <title>sandee 2</title>
    <desc>Created with Sketch.</desc>
    <defs></defs>
    <g id="Page-1" stroke="none" stroke-width="1" fill="none" fill-rule="evenodd" sketch:type="MSPage">
        <path d="M306.519737,71.4613402 L306.519737,135.716495 L281.990237,135.716495 C275.368212,135.716495 270,141.098018 270,147.717044 L270,157.162132 L270,157.162132 L270,233 L361,233 L361,157.162132 L361,147.717044 C361,141.089324 355.630502,135.716495 349.009763,135.716495 L324.480263,135.716495 L324.480263,135.716495 L324.480263,71.4613402 L335.94198,71.4613402 C338.913731,71.4613402 341.564349,68.4986378 341.862414,64.8425804 L346.609181,6.61875986 C346.907195,2.96331972 344.196509,0 340.553964,0 L290.44604,0 C286.803822,0 284.092759,2.96270243 284.390823,6.61875986 L289.137591,64.8425804 C289.435605,68.4980205 292.086007,71.4613402 295.058024,71.4613402 L306.519737,71.4613402 L306.519737,71.4613402 Z M300.543234,21.6750701 L302.73405,48.5852392 C302.871595,50.2747283 304.094857,51.6443299 305.466558,51.6443299 L324.336076,51.6443299 C325.707653,51.6443299 326.931016,50.2750136 327.068584,48.5852392 L329.259399,21.6750701 C329.396944,19.9855809 328.145858,18.6159794 326.464684,18.6159794 L303.33795,18.6159794 C301.656926,18.6159794 300.405666,19.9852956 300.543234,21.6750701 Z" id="Rectangle-1" fill="#394240" sketch:type="MSShapeGroup"></path>
        <path d="M62.8476562,208.683594 C62.8476562,217.082073 59.930205,223.478494 54.0952148,227.873047 C48.2602247,232.2676 39.5322847,234.464844 27.9111328,234.464844 C21.9540718,234.464844 16.8759976,234.062016 12.6767578,233.256348 C8.47751807,232.45068 4.54689331,231.266609 0.884765625,229.704102 L0.884765625,211.24707 C5.035177,213.200205 9.71042322,214.835931 14.9106445,216.154297 C20.1108658,217.472663 24.6884568,218.131836 28.6435547,218.131836 C36.749064,218.131836 40.8017578,215.788109 40.8017578,211.100586 C40.8017578,209.342765 40.2646538,207.914556 39.1904297,206.815918 C38.1162056,205.71728 36.2607554,204.472175 33.6240234,203.080566 C30.9872915,201.688958 27.4717017,200.065439 23.0771484,198.209961 C16.7782888,195.573229 12.1518702,193.131847 9.19775391,190.885742 C6.24363757,188.639637 4.09522156,186.063979 2.75244141,183.158691 C1.40966125,180.253403 0.73828125,176.676779 0.73828125,172.428711 C0.73828125,165.153284 3.55807727,159.525899 9.19775391,155.546387 C14.8374305,151.566875 22.8329561,149.577148 33.1845703,149.577148 C43.0479009,149.577148 52.6425315,151.725564 61.96875,156.022461 L55.2304688,172.135742 C51.1288857,170.377921 47.2959163,168.937506 43.7314453,167.814453 C40.1669744,166.691401 36.5293154,166.129883 32.8183594,166.129883 C26.2265295,166.129883 22.9306641,167.912092 22.9306641,171.476562 C22.9306641,173.478526 23.9926652,175.211907 26.1166992,176.676758 C28.2407333,178.141609 32.8915657,180.314439 40.0693359,183.195312 C46.4658523,185.783216 51.1533054,188.200184 54.1318359,190.446289 C57.1103665,192.692394 59.3076101,195.280259 60.7236328,198.209961 C62.1396555,201.139663 62.8476562,204.630839 62.8476562,208.683594 Z M132.28125,233 L127.959961,221.867188 L127.374023,221.867188 C123.614239,226.603539 119.744649,229.887198 115.765137,231.718262 C111.785625,233.549326 106.597688,234.464844 100.201172,234.464844 C92.3398044,234.464844 86.1509015,232.218772 81.6342773,227.726562 C77.1176532,223.234353 74.859375,216.837932 74.859375,208.537109 C74.859375,199.84566 77.8988954,193.437032 83.9780273,189.311035 C90.0571593,185.185038 99.2245481,182.902346 111.480469,182.462891 L125.689453,182.023438 L125.689453,178.43457 C125.689453,170.133748 121.441449,165.983398 112.945312,165.983398 C106.402311,165.983398 98.7119583,167.960918 89.8740234,171.916016 L82.4765625,156.828125 C91.9004377,151.89646 102.349552,149.430664 113.824219,149.430664 C124.810602,149.430664 133.233369,151.823218 139.092773,156.608398 C144.952178,161.393579 147.881836,168.668896 147.881836,178.43457 L147.881836,233 L132.28125,233 Z M125.689453,195.060547 L117.046875,195.353516 C110.552702,195.548829 105.718766,196.720692 102.544922,198.869141 C99.3710779,201.017589 97.7841797,204.289041 97.7841797,208.683594 C97.7841797,214.982453 101.397425,218.131836 108.624023,218.131836 C113.799831,218.131836 117.937973,216.642593 121.038574,213.664062 C124.139176,210.685532 125.689453,206.730493 125.689453,201.798828 L125.689453,195.060547 Z M246.46582,233 L224.126953,233 L224.126953,185.172852 C224.126953,179.264619 223.077159,174.833511 220.977539,171.879395 C218.877919,168.925278 215.533226,167.448242 210.943359,167.448242 C204.693328,167.448242 200.176772,169.535624 197.393555,173.710449 C194.610338,177.885275 193.21875,184.806592 193.21875,194.474609 L193.21875,233 L170.879883,233 L170.879883,151.115234 L187.945312,151.115234 L190.948242,161.588867 L192.193359,161.588867 C194.683606,157.633769 198.113748,154.643077 202.483887,152.616699 C206.854026,150.590322 211.822238,149.577148 217.388672,149.577148 C226.910204,149.577148 234.136694,152.152806 239.068359,157.304199 C244.000025,162.455592 246.46582,169.8896 246.46582,179.606445 L246.46582,233 Z M423.418945,234.464844 C410.235286,234.464844 399.932654,230.827185 392.510742,223.551758 C385.08883,216.276331 381.37793,205.973699 381.37793,192.643555 C381.37793,178.922783 384.808071,168.314979 391.668457,160.819824 C398.528843,153.32467 408.013611,149.577148 420.123047,149.577148 C431.69537,149.577148 440.704069,152.873014 447.149414,159.464844 C453.594759,166.056674 456.817383,175.163028 456.817383,186.78418 L456.817383,197.624023 L404.009766,197.624023 C404.253907,203.971711 406.133771,208.927717 409.649414,212.492188 C413.165057,216.056658 418.096648,217.838867 424.444336,217.838867 C429.376001,217.838867 434.039041,217.326177 438.433594,216.300781 C442.828147,215.275385 447.417945,213.63966 452.203125,211.393555 L452.203125,228.678711 C448.296855,230.631846 444.122093,232.084468 439.678711,233.036621 C435.235329,233.988774 429.815462,234.464844 423.418945,234.464844 Z M420.269531,165.470703 C415.533179,165.470703 411.822279,166.972153 409.136719,169.975098 C406.451158,172.978042 404.913088,177.238254 404.522461,182.755859 L435.870117,182.755859 C435.77246,177.238254 434.332045,172.978042 431.548828,169.975098 C428.765611,166.972153 425.005883,165.470703 420.269531,165.470703 Z M512.041992,234.464844 C498.858333,234.464844 488.555701,230.827185 481.133789,223.551758 C473.711877,216.276331 470.000977,205.973699 470.000977,192.643555 C470.000977,178.922783 473.431118,168.314979 480.291504,160.819824 C487.15189,153.32467 496.636658,149.577148 508.746094,149.577148 C520.318417,149.577148 529.327116,152.873014 535.772461,159.464844 C542.217806,166.056674 545.44043,175.163028 545.44043,186.78418 L545.44043,197.624023 L492.632812,197.624023 C492.876954,203.971711 494.756818,208.927717 498.272461,212.492188 C501.788104,216.056658 506.719695,217.838867 513.067383,217.838867 C517.999048,217.838867 522.662087,217.326177 527.056641,216.300781 C531.451194,215.275385 536.040992,213.63966 540.826172,211.393555 L540.826172,228.678711 C536.919902,230.631846 532.745139,232.084468 528.301758,233.036621 C523.858376,233.988774 518.438509,234.464844 512.041992,234.464844 Z M508.892578,165.470703 C504.156226,165.470703 500.445326,166.972153 497.759766,169.975098 C495.074205,172.978042 493.536135,177.238254 493.145508,182.755859 L524.493164,182.755859 C524.395507,177.238254 522.955092,172.978042 520.171875,169.975098 C517.388658,166.972153 513.62893,165.470703 508.892578,165.470703 Z" id="san---ee" fill="#394240" sketch:type="MSShapeGroup"></path>
    </g>
</svg>