<?xml version="1.0" encoding="UTF-8" standalone="no"?>
<svg width="128px" height="128px" viewBox="0 0 128 128" version="1.1" xmlns="http://www.w3.org/2000/svg" xmlns:xlink="http://www.w3.org/1999/xlink" xmlns:sketch="http://www.bohemiancoding.com/sketch/ns">
    <!-- Generator: Sketch 3.0.4 (8054) - http://www.bohemiancoding.com/sketch -->
    <title>128</title>
    <desc>Created with Sketch.</desc>
    <defs></defs>
    <g id="Page-1" stroke="none" stroke-width="1" fill="none" fill-rule="evenodd" sketch:type="MSPage">
        <g id="128" sketch:type="MSArtboardGroup" fill="#5BA6AC">
            <path d="M59.7573032,36.7644782 L59.7573032,80.0060534 L47.8301154,80.0060534 C44.6102316,80.0060534 42,82.6240542 42,85.8440749 L42,90.4389166 L42,127.332486 L86.2477064,127.332486 L86.2477064,90.4389166 L86.2477064,85.8440749 C86.2477064,82.6198247 83.6450038,80.0060534 80.4175911,80.0060534 L68.4904032,80.0060534 L68.4904032,80.0060534 L68.4904032,36.7644782 L74.0635316,36.7644782 C75.5085115,36.7644782 76.7973442,35.3231842 76.9422746,33.5445871 L79.2503357,5.2198911 C79.3952417,3.44159435 78.0772017,2 76.306056,2 L51.9416526,2 C50.1706658,2 48.8524424,3.44129404 48.9973729,5.2198911 L51.305434,33.5445871 C51.4503399,35.3228839 52.7390675,36.7644782 54.184177,36.7644782 L59.7573032,36.7644782 L59.7573032,36.7644782 Z M56.8512974,12.5444776 L57.9165564,25.6357237 C57.9834361,26.4576255 58.5782334,27.1239086 59.245207,27.1239086 L68.4202938,27.1239086 C69.0872076,27.1239086 69.6820534,26.4577643 69.7489444,25.6357237 L70.8142034,12.5444776 C70.881083,11.7225758 70.2727569,11.0562927 69.455305,11.0562927 L58.2101957,11.0562927 C57.3928172,11.0562927 56.7844064,11.722437 56.8512974,12.5444776 L56.8512974,12.5444776 L56.8512974,12.5444776 Z" id="Rectangle-2" sketch:type="MSShapeGroup"></path>
        </g>
    </g>
</svg>